<?xml version="1.0" standalone="no"?>
<!DOCTYPE svg PUBLIC "-//W3C//DTD SVG 20010904//EN"
 "http://www.w3.org/TR/2001/REC-SVG-20010904/DTD/svg10.dtd">
<svg version="1.0" xmlns="http://www.w3.org/2000/svg"
 width="2326.000000pt" height="2358.000000pt" viewBox="0 0 2326.000000 2358.000000"
 preserveAspectRatio="xMidYMid meet">

<g transform="translate(0.000000,2358.000000) scale(0.100000,-0.100000)"
fill="#000000" stroke="none">
<path d="M7870 23550 l0 -30 95 0 95 0 0 30 0 30 -95 0 -95 0 0 -30z"/>
<path d="M6068 21707 l1802 -1802 0 -108 0 -107 95 0 95 0 0 -762 0 -763 2665
2665 c1466 1466 2665 2668 2665 2672 0 5 -1199 8 -2665 8 l-2665 0 0 -1873 c0
-1031 -3 -1877 -7 -1881 -4 -3 -47 33 -95 81 l-88 88 0 1792 0 1793 -1802 0
-1803 0 1803 -1803z"/>
<path d="M17800 20838 l0 -2673 2670 2670 c1469 1468 2670 2671 2670 2672 0 2
-1201 3 -2670 3 l-2670 0 0 -2672z"/>
<path d="M1890 21615 l-1885 -1885 1888 -1888 1887 -1887 0 3773 c0 2074 -1
3772 -3 3772 -1 0 -850 -848 -1887 -1885z"/>
<path d="M3980 19730 l0 -3775 1887 1888 1888 1887 -1888 1887 -1887 1888 0
-3775z"/>
<path d="M13740 16089 l1 -7404 31 60 c1375 2694 3741 7342 3741 7349 0 10
-3759 7385 -3769 7395 -2 2 -4 -3328 -4 -7400z"/>
<path d="M10842 20667 c-1464 -1464 -2662 -2665 -2662 -2670 0 -4 1199 -7
2665 -7 l2665 0 0 2670 c0 1469 -1 2670 -3 2670 -1 0 -1200 -1198 -2665 -2663z"/>
<path d="M20582 20667 c-1464 -1464 -2662 -2665 -2662 -2670 0 -4 1199 -7
2665 -7 l2665 0 0 2670 c0 1469 -1 2670 -3 2670 -1 0 -1200 -1198 -2665 -2663z"/>
<path d="M0 15690 c0 -2073 3 -3770 8 -3770 4 0 855 848 1892 1885 l1885 1885
-1885 1885 c-1037 1037 -1888 1885 -1892 1885 -5 0 -8 -1696 -8 -3770z"/>
<path d="M8060 15128 l0 -2673 2670 2670 c1469 1468 2670 2671 2670 2672 0 2
-1201 3 -2670 3 l-2670 0 0 -2672z"/>
<path d="M17800 15128 l0 -2673 2670 2670 c1469 1468 2670 2671 2670 2672 0 2
-1201 3 -2670 3 l-2670 0 0 -2672z"/>
<path d="M10840 14975 l-2665 -2665 2668 0 2667 0 0 2665 c0 1466 -1 2665 -3
2665 -1 0 -1201 -1199 -2667 -2665z"/>
<path d="M20580 14975 l-2665 -2665 2668 0 2667 0 0 2665 c0 1466 -1 2665 -3
2665 -1 0 -1201 -1199 -2667 -2665z"/>
<path d="M15741 12150 l-1883 -3695 58 -117 c33 -64 880 -1727 1884 -3695
l1825 -3579 3 3693 c1 2031 1 5357 0 7390 l-3 3697 -1884 -3694z"/>
<path d="M1892 13527 c-1035 -1035 -1882 -1887 -1882 -1892 0 -6 848 -858
1885 -1895 l1885 -1885 0 3778 c0 2077 -1 3777 -3 3777 -1 0 -849 -847 -1885
-1883z"/>
<path d="M3980 11630 l0 -3775 536 535 c294 294 1142 1145 1884 1891 l1349
1355 -1885 1885 -1884 1884 0 -3775z"/>
<path d="M8060 9448 l0 -2673 2665 2665 c1466 1466 2665 2668 2665 2672 0 5
-1199 8 -2665 8 l-2665 0 0 -2672z"/>
<path d="M17800 9448 l0 -2673 2670 2670 c1469 1468 2670 2671 2670 2672 0 2
-1201 3 -2670 3 l-2670 0 0 -2672z"/>
<path d="M10840 9275 l-2665 -2665 2668 0 2667 0 0 2665 c0 1466 -1 2665 -3
2665 -1 0 -1201 -1199 -2667 -2665z"/>
<path d="M20580 9275 l-2665 -2665 2668 0 2667 0 0 2665 c0 1466 -1 2665 -3
2665 -1 0 -1201 -1199 -2667 -2665z"/>
<path d="M5980 9585 l-1885 -1885 1888 -1888 1887 -1887 0 3773 c0 2074 -1
3772 -3 3772 -1 0 -850 -848 -1887 -1885z"/>
<path d="M1887 5672 l-1887 -1887 1890 -1890 1890 -1890 0 3778 c0 2077 -1
3777 -3 3777 -1 0 -851 -849 -1890 -1888z"/>
<path d="M3981 3785 l0 -3780 1884 1890 c1037 1040 1885 1892 1885 1895 0 3
-848 853 -1885 1890 l-1885 1885 1 -3780z"/>
<path d="M8060 3743 l0 -2668 2665 2665 c1466 1466 2665 2666 2665 2667 0 2
-1199 3 -2665 3 l-2665 0 0 -2667z"/>
<path d="M17800 3743 l0 -2668 2665 2665 c1466 1466 2665 2666 2665 2667 0 2
-1199 3 -2665 3 l-2665 0 0 -2667z"/>
<path d="M10835 3580 l-2670 -2670 2673 0 2672 0 0 2670 c0 1469 -1 2670 -3
2670 -1 0 -1204 -1201 -2672 -2670z"/>
<path d="M20580 3575 l-2665 -2665 2668 0 2667 0 0 2665 c0 1466 -1 2665 -3
2665 -1 0 -1201 -1199 -2667 -2665z"/>
</g>
</svg>
